88      a8P          db         88888888ba   88  888b      88         db         
88    ,88'          d88b        88      "8b  ""  8888b     88        d88b        
88  ,88"           d8'`8b       88      ,8P      88 `8b    88       d8'`8b       
88,d88'           d8'  `8b      88aaaaaa8P'  88  88  `8b   88      d8'  `8b      
8888"88,         d8YaaaaY8b     88""""88'    88  88   `8b  88     d8YaaaaY8b     
88P   Y8b       d8""""""""8b    88    `8b    88  88    `8b 88    d8""""""""8b    
88     "88,    d8'        `8b   88     `8b   88  88     `8888   d8'        `8b   
88       Y8b  d8'          `8b  88      `8b  88  88      `888  d8'          `8b  
-------------------------------------------------------------------------------
                    -------------------------------------
       [ 2.or.3.Things.I.Know.About.Her.1967.DVDRip.XviD-KARiNA.avi ]            
                    -------------------------------------

[Synopsis]==================================                                                                

  2 or 3 Things I Know About Her | France | 1967 | Directed by Jean-Luc Godard
                                  
In 2 or 3 Things I Know About Her (2 ou 3 choses que je sais d'elle), Jean-Luc 
Godard beckons us ever closer, whispering in our ears as narrator. About what? 
Money, sex, fashion, the city, love, language, war: in a word, everything. Among 
the legendary French filmmaker's finest achievements, the film takes as its 
ostensible subject the daily life of Juliette Janson (Marina Vlady), a housewife 
from the Paris suburbs who prostitutes herself for extra money. Yet this is only a 
template for Godard to spin off into provocative philosophical tangents and gorgeous images. 2 or 3 Things I Know About Her is perhaps Godard's most revelatory look at consumer culture, shot in ravishing widescreen color by Raoul Coutard.

[ IMdB: http://www.imdb.com/title/tt0060304/ | Rating: 7.0 / 10 (1,500 votes) ]
                                     
[General]===================================                                                                 

Complete name                    : 2.or.3.Things.I.Know.About.Her.1967.DVDRip.XviD-KARiNA.avi
Format                           : AVI
File size                        : 1.37 GiB
Duration                         : 1h 27mn
Overall bit rate                 : 2 234 Kbps
Source                           : Criterion NTSC DVD9

[Video]=====================================
                                 
Format                           : MPEG-4 Visual
Codec ID                         : XVID
Bit rate                         : 2 115 Kbps
Width                            : 720 pixels
Height                           : 320 pixels
Display aspect ratio             : 2.25
Frame rate                       : 23.976 fps
Resolution                       : 24 bits
Colorimetry                      : 4:2:0
Scan type                        : Progressive
Bits/(Pixel*Frame)               : 0.383
Stream size                      : 1.29 GiB (95%)
Writing library                  : XviD 1.2.1 (UTC 2008-12-04)


[Audio]=====================================                              

Format                           : MPEG Audio
Format version                   : Version 1
Format profile                   : Layer 3
Bit rate mode                    : Variable
Bit rate                         : 106 Kbps
Nominal bit rate                 : 160 Kbps
Channel(s)                       : 2 channels
Sampling rate                    : 48.0 KHz
Resolution                       : 16 bits
Stream size                      : 66.6 MiB (5%)
Alignment                        : Aligned on interleaves
Interleave, duration             : 24 ms (0.58 video frame)
Interleave, preload duration     : 173 ms
Writing library                  : LAME3.98rry
Language                         : French

[Subtitles]=================================

Format                           : SRT
Language                         : English

[KARiNA]===================================